# xmcd CD database file
#
# Track frame offsets:
#	150
#	13411
#	29383
#	41323
#	59823
#	73396
#	88705
#	101190
#	118446
#	133460
#
# Disc length: 1979 seconds
#
# Revision: 1
# Processed by: cddbd v1.4PL0 Copyright (c) Steve Scherf et al.
# Submitted via: jetAudio 5
#
DISCID=a307b90a
DTITLE=Kenny Rogers - Kenny Rogers
DYEAR=1900
DGENRE=
TTITLE0=Ruby, Don't Take Your Love To Town
TTITLE1=Tulsa Turnaround
TTITLE2=Elvira
TTITLE3=The King Of Oak Street
TTITLE4=Shine On Ruby Mountain
TTITLE5=For The Good Times
TTITLE6=Ruben James
TTITLE7=Something's Burning
TTITLE8=Tell It All Brother
TTITLE9=Just Dropped In (To See What Condition My Condition Was In)
EXTD=Includes hits from the 1st edition also.
EXTT0=
EXTT1=
EXTT2=
EXTT3=
EXTT4=
EXTT5=
EXTT6=
EXTT7=
EXTT8=
EXTT9=
PLAYORDER=
